<svg id="Layer_1" data-name="Layer 1" xmlns="http://www.w3.org/2000/svg" viewBox="0 0 512 512"><defs><style>.cls-1{fill:#727272;}</style></defs><title>cards-handdrawn</title><path class="cls-1" d="M466.16,77.43A29.07,29.07,0,0,0,462.62,74a55.08,55.08,0,0,0-15.35-9.51c-5.48-2.3-12-3.55-16.53-4.32-3.21-.6-6.33-1.77-9.56-2.23l-50.24-7.06a28.41,28.41,0,0,0-13.18,1.27c0-.8,0-1.6-.07-2.38a80.5,80.5,0,0,0-2.41-15.7,22.06,22.06,0,0,0-2.45-5.27A55.15,55.15,0,0,0,317.7,2.08C311.41.52,304.28.46,299.31.49L282.92.38,250.16.13C228.31,0,206.47-.08,184.62.19L146.4.5l-59.52.59A57.15,57.15,0,0,0,54.59,13.44,58.38,58.38,0,0,0,35.19,42.36,52.49,52.49,0,0,0,33.25,52l-.33,4.9-.07,4-.12,16.19.1,32.36,0,10L31.69,239.11l-.12,36.56c.05,7.82.24,15.82,4.68,19.38,1.82,1.45,2.12,4.62,2.15,8.13,0,5,0,10,.2,15a253,253,0,0,1-1.9,44.48c-.73,5.2-.67,10.92-.79,16.43l-.06,18.25-.48,23.66-.23,11.86a56.59,56.59,0,0,0,1.58,13.75c4.18,18.21,18.42,33.63,36.39,39.65a53.82,53.82,0,0,0,9.72,2.12,69,69,0,0,0,8.86.51h7.68l15.36,0h30.73c6.64,0,13.29.62,19.9.51l81.06-1.52a7.61,7.61,0,0,1,1.42,2c1.34,2.81,3.93,3.56,6.7,4l21.79,3.6c18.26,3.31,36.79,5.11,54.7,10.3a49.09,49.09,0,0,0,6.46,1l11.76,1.6,5.9.85c2.2.18,4.36.65,6.57.67,18.58,1.54,38-8.11,47.51-24.52,2.71-4.38,4.23-9.43,5.75-14.33,1.45-5.23,2.54-9.2,5.29-13.34a7,7,0,0,0,.67-2.34c1.36-6.13,2.87-12.22,4-18.39,3.93-21.17,8.51-42.21,11.78-63.51l3-18.6c3-19.15,5.9-38.34,10.8-57.11,2.7-10.35,4.23-20.85,6.08-31.33l.83-4.84L469,205.71c1.17-5.89,2.32-11.79,3.3-17.71.63-3.8,1.14-7.72-2.92-10.22-1.67-1-1.69-2.62-1.41-4.32.4-2.43.84-4.85,1.11-7.29a62.32,62.32,0,0,1,5.74-21.24,35.27,35.27,0,0,0,2.2-7.83l1.65-8.84C483.23,111.6,478.82,91,466.16,77.43Zm3.94,43.12a90.2,90.2,0,0,1-4.2,19.79,26.48,26.48,0,0,0-1.07,4.76c-1.39,10.28-2.55,20.59-4.14,30.84-.88,5.64-1.69,11.5-3.87,16.69-4.58,10.91-7,22.4-10.18,33.68-2.59,9.23-3.71,18.71-4.75,28.22A268.54,268.54,0,0,1,437.75,282c-2.76,12.81-6.3,25.44-9.51,38.15-.67,2.65-1.41,5.28-1.94,8-2.41,12-4.3,24.21-7.23,36.13-4.85,19.69-6.2,39.92-10,59.76-2.52,13.1-2.7,26.61-6.9,39.43-.41,1.2-.16,2.84-.32,3.82-.18,2-.27,4.09-1.2,5.86a43.51,43.51,0,0,1-31.6,23,32.65,32.65,0,0,1-12.34-.73c-5-1.17-10.05-2.46-15.07-3.79A38.66,38.66,0,0,0,332,490c-9.42,0-18.37-2.33-27.33-4.82a69.34,69.34,0,0,0-8-1.94l-.24,0c2.85-.81,5.65-1.73,8.44-2.74-1.83-.79-2.86-1.62-4.16-1.73-6-.53-12-1.16-18-1.23L257,477.42a95.1,95.1,0,0,1-9.68-1.4c-10.51-2.52-21.16-1.95-31.79-1.87a8.24,8.24,0,0,0-3.16.67,2.57,2.57,0,0,0-1.45,1.68,1.87,1.87,0,0,0,.34,1c-25.44.14-50.89.5-76.31.2-16.5-.31-33.41-.48-49.57-.58-13.16-1-25.54-8.82-32.66-19.91a43.83,43.83,0,0,1-7-22.35L45.48,410c-.25-13.92-.14-27.68.84-41.44.23-3.25.28-6.6.21-9.89L45.16,295.6C45,284,44.79,272,46,260.87c2.58-23.44,2.94-47.25,4.07-70.93.92-19.36.35-38.7-.3-58.08-.64-18.76-1.1-37.64-.77-56.4.14-6.57.22-13.45.54-19.75A39.38,39.38,0,0,1,79.78,19.78a41.72,41.72,0,0,1,6.69-1l3.38,0,4.08.06c24.92.25,49.9,0,74.75.74,41.07,1.3,82-.94,123-.69,6.67.13,14-.34,19,.27a38.4,38.4,0,0,1,15.54,5.4c9.53,5.8,16.17,16.51,16.54,27.59.05,2.24.65,4.11.75,7.1.2,4.89.71,9.86.47,14.67-1.74,34.22-2.26,68.57-2,102.89.16,21.14-.55,42-1.39,63a158.5,158.5,0,0,0,.16,19.87c1.67,18.83.95,37.54.08,56.32-.26,5.51-.57,11.07-.5,16.59l1.2,79.69c.09,7.07.64,14.66.32,21.29a45,45,0,0,1-8.3,23.81,40.11,40.11,0,0,1-21.34,15.25c-1.78.49-3.6,1.2-5.17,1.79-1,.45-2.19,1.43-2,2s1.68,1.32,3,1.52c7.88,1.2,16.1-2,22.89-6.62a48.8,48.8,0,0,0,20.06-29.17c1.26-5.48,2-10.87,4.42-14.38,2.53-3.69,2.8-9.13,2.76-14.83l-.3-44.82c0-37.65-1.47-75.33.47-113,.22-4.36-.07-8.85-.14-13.28-.25-16-.86-32.09-.7-48.11.33-33.77,1-67.48.58-101.31-.11-9.19-.51-18.59-.4-27.93l.18-6.48a34.11,34.11,0,0,0,4.45,1.27l28.95,5.48c1.34.25,2.71.32,4.06.55,12.9,2.2,25.89,4.09,38.68,6.73a52.7,52.7,0,0,1,20.78,10.26,40.18,40.18,0,0,1,11.72,15.36A48.75,48.75,0,0,1,470.1,120.55Z"/><path class="cls-1" d="M246,272c4.71-3.71,7.12-9.46,9.9-14.89a3.83,3.83,0,0,0,.34-2,3.36,3.36,0,0,0-.88-1.8,2.66,2.66,0,0,0-1.77-.61c-2.64.38-4,2.21-5.57,3.87a80.37,80.37,0,0,1-7.37,6.66c-1.19,1-2.84,1.34-5.22.28s-3.74-.28-4.82.83c-2.84,2.92-5.62,5.9-8.54,8.72-3.69,3.56-7.11,7.4-10.69,11.07-1.79,1.83-3.63,3.62-5.56,5.31q-1.45,1.27-3,2.45l-1.5,1.11a8.12,8.12,0,0,1-.85.37c-.5.18-.74.82-1.13,1.29L197.52,297a14.49,14.49,0,0,1-2.82-2.37l-1.21-1.36-2.23-2.38-4.74-5c-3.19-3.31-6.44-6.56-9.89-9.62-3.75-3.33-8.44-6-9.28-12.13-.07-.49-.49-.77-.79-1.11-2.3-2.6-4.49-5.3-7-7.74L153.36,249l-3.11-3.2-1.55-1.6-1.07-1.29a35.84,35.84,0,0,1-6.45-11.57,30.83,30.83,0,0,1-1.41-7.74c-.61-8.11,2.72-16.94,9.73-21.44,3.74-2.41,7.21-4.81,11.36-6.16a16,16,0,0,1,1.91-.57,28.67,28.67,0,0,1,11.8.29,27.06,27.06,0,0,1,5.49,1.94A27.76,27.76,0,0,1,182.6,199c.4.26.82.49,1.21.78a21.65,21.65,0,0,1,1.86,1.4c3.8,3,8,7.84,11.85,11.58l3.06-3.11c3.18-3.42,6.67-6.76,5.76-11.74a3.24,3.24,0,0,1,1.12-3.57l3-1.92a10.5,10.5,0,0,1,10.43-1.27,11.43,11.43,0,0,0,3.74.45,39.54,39.54,0,0,1,4,.15,30.5,30.5,0,0,1,17.33,10l1.24,1.22a28.19,28.19,0,0,1,6.57,10.82c.44,1.32.17,2.8.55,4.1a30.2,30.2,0,0,1-1.83,21.29c-1.35,2.66-.77,6.12,0,11.17.9.21,1.69.57,2,.38a13.5,13.5,0,0,0,4.2-3.11A38.67,38.67,0,0,0,266,232.14c.19-.78.15-1.6.26-2.38a45.94,45.94,0,0,0-2.95-22.35c-1.63-4.43-3.87-8.86-7.46-12.11-3-2.61-5.85-5.37-9.31-7.39a34.53,34.53,0,0,0-13.31-5.2c-4-.47-7.87-.69-12-1.31a9.39,9.39,0,0,0-2.92.2,43.51,43.51,0,0,0-16.08,8.1c-1.66,1.25-3.29,3-4.74,3.69a18,18,0,0,1-1.07-1.83c-1.84-3.31-1.87-4.34-5.45-7.07a44.39,44.39,0,0,0-9.83-5.56c-5.81-2.5-12.45-2.31-18.42-.75a75.41,75.41,0,0,0-16.42,6.68,51.65,51.65,0,0,0-19.13,16.78,30.58,30.58,0,0,0-2.68,4.86c-3.19,7.8-3.76,16.33-3.14,24.74a36.34,36.34,0,0,0,7.58,19.35,56.86,56.86,0,0,0,7,7.51c2.11,1.83,4.18,3.72,6.14,5.71,5.18,5.26,12,8.83,16,15.31.39.63,1.28.81,1.9,1.25,1.1.79,2.42,1.37,3.19,2.45a132.23,132.23,0,0,0,18.71,21l3.56,3.45,4,4.06,8.09,8.67,7.17-6a46.24,46.24,0,0,0,7.57-7.58l1.07-1.44.53-.84q.54-.82,1.15-1.57a25.38,25.38,0,0,1,2.64-2.78,56.56,56.56,0,0,1,6.13-4.69,21.31,21.31,0,0,0,3.59-2.79l14.72-16A37,37,0,0,1,246,272Z"/><path class="cls-1" d="M124.35,119a24.24,24.24,0,0,1,4.85-6.09c.88-.8,1.81-1.54,2.8-2.27a10.07,10.07,0,0,1,2-1.12,5.76,5.76,0,0,0,2-1.21l6.94-8.43c.62-.76,1-1.78,1.84-2.32,2.57-1.63,2.93-5.38,3.64-8.79a2.77,2.77,0,0,0-.26-1.45A5.93,5.93,0,0,0,147,85.7a4.08,4.08,0,0,0-1.47-.9c-1.87-.37-2.43.67-3.17,1.54a20.2,20.2,0,0,1-3.81,3.2c-.64.45-1.77.31-3.81-1.09s-2.84-1.14-3.37-.57c-1.38,1.5-2.7,3.06-4.17,4.47-1.85,1.78-3.43,3.83-5.18,5.71a9.25,9.25,0,0,1-1.84,1.7,2.27,2.27,0,0,1-1.72.43c-.25-.07-.37.46-.56.75l-.94,1.52a3,3,0,0,1-1.41-1l-2.22-3a39,39,0,0,0-4.68-4.56c-2-1.58-4.77-2.43-3.85-6.86.07-.35-.17-.46-.31-.64a42,42,0,0,0-3.23-4.12l-3.06-3.24-1.51-1.64L96,76.6l-.32-.46a24,24,0,0,1-2.18-3.83,10,10,0,0,1-.68-2.6c-.53-2.74.47-6.26,3.59-7.09,1.6-.38,2.48-1.26,3.82-1.73a2.63,2.63,0,0,1,.6-.21,8.89,8.89,0,0,1,3.72.49,7.92,7.92,0,0,1,1.6.78l1.45,1a30.1,30.1,0,0,1,3.18,3.14L117,72.59,118.56,71c1.63-1.7,3.52-3.9,3-9.46-.21-2.28.16-3.06.71-3.49l2.09-1.72c1.37-1.35,3.11-1.38,4.8.44a2.05,2.05,0,0,0,1.51.65c.52.06,1,0,1.55.1a10.8,10.8,0,0,1,5.83,4.71,4.58,4.58,0,0,0,.44.42,9,9,0,0,1,2.29,3.7c.15.47-.34,1.07-.14,1.48a10.45,10.45,0,0,1,.5,7.78c-.39,1,1.19,3.28,3,7.23.73.39,1.42.85,1.63.8a5.06,5.06,0,0,0,2.63-1.23,19.32,19.32,0,0,0,3.92-8.1,10.21,10.21,0,0,0,.06-1.27,26.82,26.82,0,0,0-1.65-11.71C150,58.94,149,56.42,147,54.83A59,59,0,0,0,142.06,51a15.82,15.82,0,0,0-7-2.8,22.43,22.43,0,0,1-6.37-1.08,2.8,2.8,0,0,0-1.59,0,21.2,21.2,0,0,0-7.76,4.56c-.81.67-1.63,1.64-2.35,1.69a9.15,9.15,0,0,1-.54-1.26,24.71,24.71,0,0,0-1.9-4.53c.15-.27-1.29-1.23-2-1.76-.91-.6-1.85-1.19-2.84-1.73-3.26-1.83-7.22-1.48-10.57-.3a87.08,87.08,0,0,0-9.24,4.11,31.62,31.62,0,0,0-11.83,9,14.18,14.18,0,0,0-1.78,2.8c-2,4.62-2.21,9.66-2.16,14.73A18.87,18.87,0,0,0,78.65,86,33.05,33.05,0,0,0,83,90.28a27.23,27.23,0,0,1,3.13,2.79c2.53,2.69,6.72,3.69,8.06,7.6.13.38.75.29,1.1.48.62.32,1.46.43,1.76,1.06a32.16,32.16,0,0,0,3.8,6.14l1.13,1.36,2.27,2.35c1.54,1.55,3.12,3.06,4.7,4.52a83.9,83.9,0,0,1,8.06,8.82l3.58-2.52A12.17,12.17,0,0,0,124.35,119Z"/><path class="cls-1" d="M309.44,417.56a2.77,2.77,0,0,0-.26-1.45,5.93,5.93,0,0,0-1.1-1.59,4.08,4.08,0,0,0-1.47-.9c-1.87-.37-2.43.67-3.17,1.54a20.2,20.2,0,0,1-3.81,3.2c-.64.45-1.77.31-3.81-1.09s-2.84-1.14-3.37-.57c-1.38,1.5-2.7,3.06-4.17,4.47-1.85,1.78-3.43,3.83-5.18,5.71a9.25,9.25,0,0,1-1.84,1.7,2.27,2.27,0,0,1-1.72.43c-.25-.07-.37.46-.56.75l-.94,1.52a3,3,0,0,1-1.41-1l-2.22-3a39,39,0,0,0-4.68-4.56c-2-1.58-4.77-2.43-3.85-6.86.07-.35-.17-.46-.31-.64a42,42,0,0,0-3.23-4.12l-3.06-3.24-1.51-1.64-.75-.82-.32-.46a24,24,0,0,1-2.18-3.83,10,10,0,0,1-.68-2.6c-.53-2.74.47-6.26,3.59-7.09,1.6-.38,2.48-1.26,3.82-1.73a2.63,2.63,0,0,1,.6-.21,8.89,8.89,0,0,1,3.72.49,7.92,7.92,0,0,1,1.6.78l1.45,1a30.1,30.1,0,0,1,3.18,3.14l6.24,6.48,1.58-1.63c1.63-1.7,3.52-3.9,3-9.46-.21-2.28.16-3.06.71-3.49l2.09-1.72c1.37-1.35,3.11-1.38,4.8.44a2.05,2.05,0,0,0,1.51.65c.52.06,1,0,1.55.1a10.8,10.8,0,0,1,5.83,4.71,4.58,4.58,0,0,0,.44.42,9,9,0,0,1,2.29,3.7c.15.47-.34,1.07-.14,1.48a10.45,10.45,0,0,1,.5,7.78c-.39,1,1.19,3.28,3,7.23.73.39,1.42.85,1.63.8a5.06,5.06,0,0,0,2.63-1.23,19.32,19.32,0,0,0,3.92-8.1,10.21,10.21,0,0,0,.06-1.27,26.82,26.82,0,0,0-1.65-11.71c-.76-2.34-1.74-4.86-3.79-6.45a59,59,0,0,0-4.92-3.86,15.82,15.82,0,0,0-7-2.8,22.43,22.43,0,0,1-6.37-1.08,2.8,2.8,0,0,0-1.58,0,21.2,21.2,0,0,0-7.76,4.56c-.81.67-1.63,1.64-2.35,1.69a9.15,9.15,0,0,1-.54-1.26,24.71,24.71,0,0,0-1.9-4.53c.15-.27-1.29-1.23-2-1.76-.91-.6-1.85-1.19-2.84-1.73-3.26-1.83-7.22-1.48-10.57-.3a87.08,87.08,0,0,0-9.24,4.11,31.62,31.62,0,0,0-11.83,9,14.18,14.18,0,0,0-1.78,2.8c-2,4.62-2.21,9.66-2.16,14.73a18.87,18.87,0,0,0,4.54,11.62A33.05,33.05,0,0,0,244,419.1a27.23,27.23,0,0,1,3.13,2.79c2.53,2.69,6.72,3.69,8.06,7.6.13.38.75.29,1.1.48.62.32,1.46.43,1.76,1.06a32.16,32.16,0,0,0,3.8,6.14l1.13,1.36,2.27,2.35c1.54,1.55,3.12,3.06,4.7,4.52a83.9,83.9,0,0,1,8.06,8.82l3.58-2.52a12.17,12.17,0,0,0,3.78-3.91,24.24,24.24,0,0,1,4.85-6.09c.88-.8,1.81-1.54,2.8-2.27a10.07,10.07,0,0,1,2-1.12,5.76,5.76,0,0,0,2-1.21l6.94-8.43c.62-.76,1-1.78,1.84-2.32C308.37,424.72,308.73,421,309.44,417.56Z"/></svg>